<mxfile host="app.diagrams.net" modified="2022-01-26T03:22:48.369Z" agent="5.0 (Macintosh; Intel Mac OS X 10_15_7) AppleWebKit/537.36 (KHTML, like Gecko) Chrome/97.0.4692.99 Safari/537.36" etag="DLnkU7T305ngXpJNUFYx" version="16.4.5" type="github">
  <diagram id="GmnrlmjLdg8a2bMIK4yc" name="Page-1">
    <mxGraphModel dx="1716" dy="983" grid="1" gridSize="10" guides="1" tooltips="1" connect="1" arrows="1" fold="1" page="1" pageScale="1" pageWidth="827" pageHeight="1169" math="0" shadow="0">
      <root>
        <mxCell id="0" />
        <mxCell id="1" parent="0" />
        <mxCell id="YinPKacjG_CFSwzIZgs7-18" value="" style="rounded=0;whiteSpace=wrap;html=1;" vertex="1" parent="1">
          <mxGeometry x="120" y="10" width="630" height="920" as="geometry" />
        </mxCell>
        <mxCell id="YinPKacjG_CFSwzIZgs7-2" style="edgeStyle=orthogonalEdgeStyle;rounded=0;orthogonalLoop=1;jettySize=auto;html=1;" edge="1" parent="1" source="YinPKacjG_CFSwzIZgs7-1">
          <mxGeometry relative="1" as="geometry">
            <mxPoint x="414" y="180" as="targetPoint" />
          </mxGeometry>
        </mxCell>
        <mxCell id="YinPKacjG_CFSwzIZgs7-1" value="开始" style="rounded=1;whiteSpace=wrap;html=1;fillColor=#1ba1e2;fontColor=#ffffff;strokeColor=#006EAF;" vertex="1" parent="1">
          <mxGeometry x="354" y="60" width="120" height="60" as="geometry" />
        </mxCell>
        <mxCell id="YinPKacjG_CFSwzIZgs7-5" style="edgeStyle=orthogonalEdgeStyle;rounded=0;orthogonalLoop=1;jettySize=auto;html=1;entryX=0.5;entryY=0;entryDx=0;entryDy=0;" edge="1" parent="1" source="YinPKacjG_CFSwzIZgs7-3" target="YinPKacjG_CFSwzIZgs7-4">
          <mxGeometry relative="1" as="geometry" />
        </mxCell>
        <mxCell id="YinPKacjG_CFSwzIZgs7-3" value="calloc" style="rounded=1;whiteSpace=wrap;html=1;fillColor=#1ba1e2;fontColor=#ffffff;strokeColor=#006EAF;" vertex="1" parent="1">
          <mxGeometry x="354" y="180" width="120" height="60" as="geometry" />
        </mxCell>
        <mxCell id="YinPKacjG_CFSwzIZgs7-7" value="" style="edgeStyle=orthogonalEdgeStyle;rounded=0;orthogonalLoop=1;jettySize=auto;html=1;fillColor=#1ba1e2;strokeColor=#006EAF;" edge="1" parent="1" source="YinPKacjG_CFSwzIZgs7-4" target="YinPKacjG_CFSwzIZgs7-6">
          <mxGeometry relative="1" as="geometry" />
        </mxCell>
        <mxCell id="YinPKacjG_CFSwzIZgs7-4" value="_malloc_zone_calloc" style="rounded=1;whiteSpace=wrap;html=1;fillColor=#1ba1e2;fontColor=#ffffff;strokeColor=#006EAF;" vertex="1" parent="1">
          <mxGeometry x="354" y="300" width="120" height="60" as="geometry" />
        </mxCell>
        <mxCell id="YinPKacjG_CFSwzIZgs7-9" value="" style="edgeStyle=orthogonalEdgeStyle;rounded=0;orthogonalLoop=1;jettySize=auto;html=1;fillColor=#1ba1e2;strokeColor=#006EAF;" edge="1" parent="1" source="YinPKacjG_CFSwzIZgs7-6" target="YinPKacjG_CFSwzIZgs7-8">
          <mxGeometry relative="1" as="geometry" />
        </mxCell>
        <mxCell id="YinPKacjG_CFSwzIZgs7-6" value="default_zone_calloc" style="whiteSpace=wrap;html=1;rounded=1;fillColor=#1ba1e2;fontColor=#ffffff;strokeColor=#006EAF;" vertex="1" parent="1">
          <mxGeometry x="354" y="420" width="120" height="60" as="geometry" />
        </mxCell>
        <mxCell id="YinPKacjG_CFSwzIZgs7-11" value="" style="edgeStyle=orthogonalEdgeStyle;rounded=0;orthogonalLoop=1;jettySize=auto;html=1;fillColor=#1ba1e2;strokeColor=#006EAF;" edge="1" parent="1" source="YinPKacjG_CFSwzIZgs7-8" target="YinPKacjG_CFSwzIZgs7-10">
          <mxGeometry relative="1" as="geometry" />
        </mxCell>
        <mxCell id="YinPKacjG_CFSwzIZgs7-8" value="nona_calloc" style="whiteSpace=wrap;html=1;rounded=1;fillColor=#1ba1e2;fontColor=#ffffff;strokeColor=#006EAF;" vertex="1" parent="1">
          <mxGeometry x="354" y="540" width="120" height="60" as="geometry" />
        </mxCell>
        <mxCell id="YinPKacjG_CFSwzIZgs7-13" value="" style="edgeStyle=orthogonalEdgeStyle;rounded=0;orthogonalLoop=1;jettySize=auto;html=1;fillColor=#1ba1e2;strokeColor=#006EAF;" edge="1" parent="1" source="YinPKacjG_CFSwzIZgs7-10" target="YinPKacjG_CFSwzIZgs7-12">
          <mxGeometry relative="1" as="geometry" />
        </mxCell>
        <mxCell id="YinPKacjG_CFSwzIZgs7-10" value="_nona_malloc_check_clear" style="whiteSpace=wrap;html=1;rounded=1;fillColor=#1ba1e2;fontColor=#ffffff;strokeColor=#006EAF;" vertex="1" parent="1">
          <mxGeometry x="319" y="670" width="190" height="60" as="geometry" />
        </mxCell>
        <mxCell id="YinPKacjG_CFSwzIZgs7-12" value="segregated_size_to_fit" style="whiteSpace=wrap;html=1;rounded=1;fillColor=#1ba1e2;fontColor=#ffffff;strokeColor=#006EAF;" vertex="1" parent="1">
          <mxGeometry x="319" y="790" width="190" height="60" as="geometry" />
        </mxCell>
        <mxCell id="YinPKacjG_CFSwzIZgs7-14" value="po zone-&gt;calloc&#xa;(.dylib`default_zone_calloc at malloc.c:385)" style="ellipse;whiteSpace=wrap;html=1;fillColor=#fff2cc;strokeColor=#d6b656;align=center;" vertex="1" parent="1">
          <mxGeometry x="457" y="230" width="253" height="100" as="geometry" />
        </mxCell>
        <mxCell id="YinPKacjG_CFSwzIZgs7-17" value="&lt;div&gt;po zone-&amp;gt;calloc&lt;/div&gt;&lt;div&gt;(.dylib`nano_calloc at nano_malloc.c:878)&lt;/div&gt;" style="ellipse;whiteSpace=wrap;html=1;fillColor=#fff2cc;strokeColor=#d6b656;align=center;" vertex="1" parent="1">
          <mxGeometry x="457" y="350" width="253" height="100" as="geometry" />
        </mxCell>
      </root>
    </mxGraphModel>
  </diagram>
</mxfile>
